<?xml version="1.0" encoding="UTF-8" standalone="no"?>
<svg xmlns="http://www.w3.org/2000/svg" width="0.133333in" height="0.133333in" viewBox="0 0 40 40" version="1.1" id="svg3">
  <rect id="rectArm11" width="3" height="3" x="5" y="2" fill="#000" />
  <rect id="rectArm12" width="3" height="3" x="30" y="2" fill="#000" />
  <rect id="rectArm13" width="3" height="3" x="8" y="5" fill="#000" />
  <rect id="rectArm14" width="3" height="3" x="27" y="5" fill="#000" />
  <rect id="rectArm15" width="3" height="3" x="11" y="8" fill="#000" />
  <rect id="rectArm16" width="3" height="3" x="24" y="8" fill="#000" />

  <rect id="rectHead1" width="4" height="10" x="17" y="1" fill="#000"/>
  <rect id="rectHead2" width="10" height="4" x="14" y="4" fill="#000"/>

  <rect id="rectBodyColor11" width="3" height="12" x="14" y="11" fill="#000" />
  <rect id="rectBodyColor12" width="3" height="12" x="21" y="11" fill="#000" />
  <rect id="rectBodyColor13" width="3" height="15" x="27" y="11" fill="#000" />
  <rect id="rectBodyColor14" width="3" height="15" x="8" y="11" fill="#000" />
  <rect id="rectBodyColor15" width="16" height="3" x="11" y="26" fill="#000" />

  <rect id="rectBodyColor21" width="4" height="12" x="17" y="11" fill="#999" />
  <rect id="rectBodyColor22" width="3" height="12" x="11" y="11" fill="#999" />
  <rect id="rectBodyColor23" width="3" height="12" x="24" y="11" fill="#999" />
  <rect id="rectBodyColor24" width="16" height="3" x="11" y="23" fill="#999" />

  <rect id="rectArm21" width="3" height="3" x="2" y="35" fill="#000" />
  <rect id="rectArm22" width="3" height="3" x="33" y="35" fill="#000" />
  <rect id="rectArm23" width="3" height="3" x="5" y="32" fill="#000" />
  <rect id="rectArm24" width="3" height="3" x="30" y="32" fill="#000" />
  <rect id="rectArm25" width="3" height="3" x="8" y="29" fill="#000" />
  <rect id="rectArm26" width="3" height="3" x="27" y="29" fill="#000" />
</svg>
