<?xml version="1.0" encoding="UTF-8" standalone="no"?>
<!--
  - Copyright (c) 2024 DOMINIC JOAS
  -
  - This program is free software: you can redistribute it and/or modify
  - it under the terms of the GNU General Public License as published by
  - the Free Software Foundation, either version 3 of the License, or
  - (at your option) any later version.
  -
  - This program is distributed in the hope that it will be useful,
  - but WITHOUT ANY WARRANTY; without even the implied warranty of
  - MERCHANTABILITY or FITNESS FOR A PARTICULAR PURPOSE.  See the
  - GNU General Public License for more details.
  -
  - You should have received a copy of the GNU General Public License
  - along with this program.  If not, see <http://www.gnu.org/licenses/>.
  -->

<svg xmlns="http://www.w3.org/2000/svg" width="0.133333in" height="0.133333in" viewBox="0 0 40 40" version="1.1" id="svg3">
  <rect id="rectArm11" width="3" height="3" x="5" y="2" fill="#fff" />
  <rect id="rectArm12" width="3" height="3" x="30" y="2" fill="#fff" />
  <rect id="rectArm13" width="3" height="3" x="8" y="5" fill="#fff" />
  <rect id="rectArm14" width="3" height="3" x="27" y="5" fill="#fff" />
  <rect id="rectArm15" width="3" height="3" x="11" y="8" fill="#fff" />
  <rect id="rectArm16" width="3" height="3" x="24" y="8" fill="#fff" />

  <rect id="rectHead1" width="4" height="10" x="17" y="1" fill="#fff"/>
  <rect id="rectHead2" width="10" height="4" x="14" y="4" fill="#fff"/>

  <rect id="rectBodyColor11" width="3" height="12" x="14" y="11" fill="#fff" />
  <rect id="rectBodyColor12" width="3" height="12" x="21" y="11" fill="#fff" />
  <rect id="rectBodyColor13" width="3" height="15" x="27" y="11" fill="#fff" />
  <rect id="rectBodyColor14" width="3" height="15" x="8" y="11" fill="#fff" />
  <rect id="rectBodyColor15" width="16" height="3" x="11" y="26" fill="#fff" />

  <rect id="rectBodyColor21" width="4" height="12" x="17" y="11" fill="#999" />
  <rect id="rectBodyColor22" width="3" height="12" x="11" y="11" fill="#999" />
  <rect id="rectBodyColor23" width="3" height="12" x="24" y="11" fill="#999" />
  <rect id="rectBodyColor24" width="16" height="3" x="11" y="23" fill="#999" />

  <rect id="rectArm21" width="3" height="3" x="2" y="35" fill="#fff" />
  <rect id="rectArm22" width="3" height="3" x="33" y="35" fill="#fff" />
  <rect id="rectArm23" width="3" height="3" x="5" y="32" fill="#fff" />
  <rect id="rectArm24" width="3" height="3" x="30" y="32" fill="#fff" />
  <rect id="rectArm25" width="3" height="3" x="8" y="29" fill="#fff" />
  <rect id="rectArm26" width="3" height="3" x="27" y="29" fill="#fff" />
</svg>